<?xml version="1.0" encoding="utf-8"?>
<!-- Generator: Adobe Illustrator 18.1.1, SVG Export Plug-In . SVG Version: 6.00 Build 0)  -->
<svg version="1.1" id="Layer_2" xmlns="http://www.w3.org/2000/svg" xmlns:xlink="http://www.w3.org/1999/xlink" x="0px" y="0px"
	 width="72px" height="72px" viewBox="21 -6 72 72" enable-background="new 21 -6 72 72" xml:space="preserve">
<path fill="#333333" d="M93,61.77C93,64.1,91.09,66,88.77,66H25.23C22.9,66,21,64.09,21,61.77V-1.77C21-4.1,22.91-6,25.23-6h63.53
	c2.33,0,4.23,1.91,4.23,4.23L93,61.77L93,61.77z"/>
<g id="Layer_3">
	<path fill="#D3C36E" d="M84.34,13.04c-2.01,0.89-4.17,1.5-6.44,1.77c2.32-1.39,4.09-3.59,4.93-6.21c-2.17,1.29-4.57,2.22-7.12,2.72
		c-2.05-2.18-4.96-3.54-8.19-3.54c-6.2,0-11.22,5.03-11.22,11.22c0,0.88,0.1,1.74,0.29,2.56C47.27,21.09,39,16.62,33.47,9.84
		c-0.97,1.66-1.52,3.58-1.52,5.64c0,3.89,1.98,7.33,4.99,9.34c-1.84-0.06-3.57-0.56-5.08-1.4c0,0.05,0,0.09,0,0.14
		c0,5.44,3.87,9.97,9,11c-0.94,0.26-1.93,0.39-2.96,0.39c-0.72,0-1.43-0.07-2.11-0.2c1.43,4.46,5.57,7.7,10.48,7.79
		c-3.84,3.01-8.68,4.8-13.93,4.8c-0.91,0-1.8-0.05-2.68-0.16c4.96,3.18,10.86,5.04,17.2,5.04c20.63,0,31.92-17.09,31.92-31.92
		c0-0.49-0.01-0.97-0.03-1.45C80.93,17.27,82.84,15.29,84.34,13.04z"/>
</g>
</svg>
