<?xml version="1.0" encoding="utf-8"?>
<!-- Generator: Adobe Illustrator 18.1.1, SVG Export Plug-In . SVG Version: 6.00 Build 0)  -->
<svg version="1.1" id="Layer_2_1_" xmlns="http://www.w3.org/2000/svg" xmlns:xlink="http://www.w3.org/1999/xlink" x="0px" y="0px"
	 width="72px" height="72px" viewBox="21 -6 72 72" enable-background="new 21 -6 72 72" xml:space="preserve">
<g id="Layer_2_2_">
	<rect x="40.96" y="2.83" fill="#D3C36E" width="44.73" height="63.17"/>
	<path id="Blue_2_" fill="#333333" d="M89-6H25c-2.21,0-4,1.79-4,4v64c0,2.21,1.79,4,4,4h34.46V38.12h-9.38V27.25h9.38v-8.01
		c0-9.3,5.68-14.36,13.98-14.36c3.97,0,7.39,0.3,8.38,0.43v9.72h-5.75c-4.51,0-5.39,2.14-5.39,5.29v6.94h10.76l-1.4,10.87h-9.36V66
		H89c2.21,0,4-1.79,4-4V-2C93-4.21,91.21-6,89-6z"/>
</g>
</svg>
