<?xml version="1.0" encoding="utf-8"?>
<!-- Generator: Adobe Illustrator 18.1.1, SVG Export Plug-In . SVG Version: 6.00 Build 0)  -->
<svg version="1.1" id="Layer_2" xmlns="http://www.w3.org/2000/svg" xmlns:xlink="http://www.w3.org/1999/xlink" x="0px" y="0px"
	 width="72px" height="72px" viewBox="21 -6 72 72" enable-background="new 21 -6 72 72" xml:space="preserve">
<path fill="#333333" d="M93,61.77C93,64.1,91.09,66,88.77,66H25.23C22.9,66,21,64.09,21,61.77V-1.77C21-4.1,22.91-6,25.23-6h63.53
	c2.33,0,4.23,1.91,4.23,4.23L93,61.77L93,61.77z"/>
<g>
	<polygon fill="#D3C36E" points="44.18,50.7 34.93,50.7 34.93,21.08 44.18,21.08 	"/>
	<path fill="#D3C36E" d="M39.54,17.38h-0.07c-3.08,0-5.08-2.27-5.08-5.13c0-2.93,2.05-5.14,5.2-5.14c3.14,0,5.07,2.22,5.14,5.13
		C44.73,15.11,42.75,17.38,39.54,17.38z"/>
	<path fill="#D3C36E" d="M81.2,50.7H70.71V35.38c0-4.02-1.65-6.75-5.25-6.75c-2.77,0-4.3,1.85-5.01,3.63
		c-0.26,0.64-0.22,1.53-0.22,2.42v16.03H49.84c0,0,0.13-27.15,0-29.62h10.39v4.65c0.61-2.04,3.94-4.93,9.24-4.93
		c6.57,0,11.73,4.26,11.73,13.44C81.2,34.23,81.2,50.7,81.2,50.7z"/>
</g>
</svg>
