<?xml version="1.0" encoding="utf-8"?>
<!-- Generator: Adobe Illustrator 18.1.1, SVG Export Plug-In . SVG Version: 6.00 Build 0)  -->
<svg version="1.1" id="Layer_1" xmlns="http://www.w3.org/2000/svg" xmlns:xlink="http://www.w3.org/1999/xlink" x="0px" y="0px"
	 width="72px" height="72px" viewBox="21 -6 72 72" enable-background="new 21 -6 72 72" xml:space="preserve">
<g id="Layer_2_1_">
	<path fill="#333333" d="M93,61.77C93,64.1,91.09,66,88.77,66H25.23C22.9,66,21,64.09,21,61.77V-1.77C21-4.1,22.91-6,25.23-6h63.53
		c2.33,0,4.23,1.91,4.23,4.23L93,61.77L93,61.77z"/>
</g>
<g>
	<g>
		<path fill="#D3C36E" d="M80.99,20.14c0,0-0.48-3.4-1.94-4.9c-1.86-1.97-3.95-1.98-4.9-2.09c-6.85-0.5-17.13-0.5-17.13-0.5h-0.03
			c0,0-10.28,0-17.13,0.5c-0.96,0.11-3.04,0.13-4.9,2.09c-1.46,1.5-1.94,4.9-1.94,4.9s-0.49,3.99-0.49,7.98v3.74
			c0,3.99,0.49,7.98,0.49,7.98s0.48,3.4,1.94,4.9c1.86,1.97,4.31,1.9,5.4,2.11c3.91,0.38,16.64,0.5,16.64,0.5s10.29-0.02,17.14-0.51
			c0.96-0.11,3.04-0.13,4.9-2.09c1.46-1.5,1.94-4.9,1.94-4.9s0.49-3.99,0.49-7.98v-3.74C81.48,24.13,80.99,20.14,80.99,20.14z
			 M51.89,36.84v-13.9l13.01,6.81L51.89,36.84z"/>
	</g>
</g>
</svg>
