<?xml version="1.0" encoding="utf-8"?>
<!-- Generator: Adobe Illustrator 18.1.1, SVG Export Plug-In . SVG Version: 6.00 Build 0)  -->
<svg version="1.1" id="Layer_2" xmlns="http://www.w3.org/2000/svg" xmlns:xlink="http://www.w3.org/1999/xlink" x="0px" y="0px"
	 width="72px" height="72px" viewBox="21 -6 72 72" enable-background="new 21 -6 72 72" xml:space="preserve">
<path fill="#333333" d="M93,61.77C93,64.1,91.09,66,88.77,66H25.23C22.9,66,21,64.09,21,61.77V-1.77C21-4.1,22.91-6,25.23-6h63.53
	c2.33,0,4.23,1.91,4.23,4.23L93,61.77L93,61.77z"/>
<g id="g_x2B__1_" display="none">
	<g id="_x2B_" display="inline">
		<g>
			<g>
				<g>
					<defs>
						<path id="SVGID_1_" d="M45.28,65.72V50.04h3.22v15.68H45.28L45.28,65.72z M38.98,59.42v-3.08H54.8v3.08H38.98L38.98,59.42z"/>
					</defs>
					<clipPath id="SVGID_2_">
						<use xlink:href="#SVGID_1_"  overflow="visible"/>
					</clipPath>
					<rect x="-6" y="23" clip-path="url(#SVGID_2_)" fill="#FFFFFF" width="67.25" height="69.42"/>
				</g>
			</g>
		</g>
	</g>
	<g id="g" display="inline">
		<g>
			<g>
				<g>
					<defs>
						<path id="SVGID_3_" d="M34.86,37.58h-3.77c1.46,1.19,4.36,3.49,4.36,8.26c0,4.64-2.67,6.84-5.34,8.9
							c-0.83,0.81-1.78,1.69-1.78,3.07c0,1.38,0.95,2.13,1.65,2.7l2.29,1.75c2.8,2.32,5.34,4.45,5.34,8.78
							c0,5.89-5.97,11.89-16.92,11.89c-9.23,0-13.5-4.37-13.5-9.01c0-2.26,1.14-5.45,4.9-7.65c3.94-2.38,9.29-2.69,12.15-2.88
							c-0.89-1.13-1.91-2.32-1.91-4.26c0-1.07,0.32-1.69,0.64-2.45c-0.7,0.06-1.4,0.12-2.04,0.12c-6.74,0-10.56-4.95-10.56-9.84
							c0-2.88,0.9-6.29,3.63-8.61c3.63-2.95,8.26-3.3,11.7-3.3h13.27L34.86,37.58L34.86,37.58z M18.26,66.16
							c-1.4,0.5-5.47,2-5.47,6.46c0,4.45,4.39,7.65,11.2,7.65c6.11,0,9.36-2.89,9.36-6.77c0-3.2-2.1-4.89-6.94-8.28
							c-0.51-0.06-0.83-0.06-1.46-0.06C24.37,65.15,20.94,65.28,18.26,66.16L18.26,66.16z M21.84,37.35c-1.66,0-3.44,0.66-4.46,1.91
							c-1.08,1.32-1.4,3.17-1.4,4.8c0,4.2,2.48,11.16,7.96,11.16c1.59,0,3.3-0.91,4.33-1.91c1.46-1.45,1.59-3.29,1.59-4.42
							C29.85,44.37,27.12,37.35,21.84,37.35L21.84,37.35z"/>
					</defs>
					<clipPath id="SVGID_4_">
						<use xlink:href="#SVGID_3_"  overflow="visible"/>
					</clipPath>
					<rect x="-6" y="23" clip-path="url(#SVGID_4_)" fill="#FFFFFF" width="67.25" height="69.42"/>
				</g>
			</g>
		</g>
	</g>
</g>
<g id="G_x2B__New">
	<path fill="#D3C36E" d="M57.51,27.77c0.17,0.72,0.26,1.46,0.26,2.23c0,5.41-4.39,9.8-9.8,9.8s-9.8-4.39-9.8-9.8s4.39-9.8,9.8-9.8
		c2.38,0,4.56,0.86,6.26,2.28l4.29-4.08c-2.79-2.53-6.49-4.08-10.55-4.08c-8.66,0-15.68,7.02-15.68,15.68s7.02,15.68,15.68,15.68
		S63.2,38.66,63.2,30c0-0.76-0.02-2.23-0.02-2.23H57.51z"/>
	<rect x="47.97" y="27.77" fill="#D3C36E" width="12.38" height="5.25"/>
	<rect x="68.28" y="27.75" fill="#D3C36E" width="13.44" height="4.51"/>
	<rect x="68.28" y="27.81" fill="#D3C36E" width="13.44" height="4.51"/>
	<rect x="72.74" y="23.34" fill="#D3C36E" width="4.51" height="13.44"/>
</g>
</svg>
