<?xml version="1.0" encoding="UTF-8"?>
<svg width="47px" height="47px" viewBox="0 0 47 47" version="1.1" xmlns="http://www.w3.org/2000/svg" xmlns:xlink="http://www.w3.org/1999/xlink">
    <!-- Generator: Sketch 48.2 (47327) - http://www.bohemiancoding.com/sketch -->
    <title>country icon</title>
    <desc>Created with Sketch.</desc>
    <defs></defs>
    <g id="responsive" stroke="none" stroke-width="1" fill="none" fill-rule="evenodd">
        <g id="country-icon" fill="#006062" fill-rule="nonzero">
            <g id="Country_icon" transform="translate(14.000000, 14.000000)">
                <path d="M10,0 C4.47771429,0 0,4.47771429 0,10 C0,15.5222857 4.47771429,20 10,20 C15.5222857,20 20,15.5222857 20,10 C20,4.47771429 15.5222857,0 10,0 Z M7.34262857,1.95088286 C6.93971429,2.23325143 6.72768571,2.8058 6.38057143,2.93414286 C6.01897143,3.06918857 5.71985714,2.86048286 5.37611429,2.89619714 C5.98325714,2.50222571 6.64285714,2.18191143 7.34262857,1.95088286 Z M10,18.4766 C5.31914286,18.4766 1.52342857,14.6820286 1.52342857,10.0000286 C1.52342857,7.2132 2.8694,4.74002857 4.94542857,3.19545714 C4.71440286,3.48897143 4.4432,3.93094286 4.49454286,4.00014286 C4.65190857,4.21442857 5.12288571,4.11956286 5.249,4.00014286 C5.37511429,3.88072286 6.00345714,3.61734286 6.25457143,3.61734286 C6.50568571,3.61734286 7.25902857,4.07271429 7.62177143,3.99457143 C8.28248571,3.85283143 8.22111429,3.38185714 8.46551429,3.24011429 C8.67087143,3.12181143 9.02131429,3.24011429 9.39854286,3.07270286 C9.77577143,2.90529143 9.63403429,2.04590286 9.31706857,1.81490286 C9.10613143,1.662 8.67866857,1.65530571 8.27912571,1.69883143 C8.83492571,1.58387714 9.40969714,1.52360857 9.99898286,1.52360857 C11.6965257,1.52360857 13.27584,2.02472286 14.6015543,2.88409429 C14.4229829,3.42203714 13.3482114,2.92985429 12.6305829,3.40529429 C11.8750114,3.90529429 11.8794686,4.80260857 11.5636114,5.03140857 C10.4810114,5.81378 8.57132571,5.96889429 8.13275429,6.13186571 C7.74995429,6.27472286 7.22092571,6.51020857 7.24658286,7.00909429 C7.27113657,7.48678 7.58252571,7.87740857 8.09815429,7.80932286 C8.61378286,7.74012571 9.30238286,7.30152286 9.71535429,7.30152286 C10.1282971,7.30152286 10.43744,7.95555143 10.6785257,8.12740857 C10.9195971,8.29928286 11.5736114,8.26468571 11.6416971,8.64303714 C11.7108943,9.02138 11.5725,9.74460857 11.0222686,9.74460857 C10.4720371,9.74460857 9.30241143,8.71223714 8.95752571,8.60955143 C8.61378286,8.50687429 8.23544,8.71223143 8.02895429,8.57495429 C7.82248,8.43767714 7.37604,7.99346857 6.96198286,8.05932571 C6.45752571,8.13968286 6.26109714,8.61624 6.03341143,8.80486857 C5.77783143,9.01580571 5.08698286,9.18881143 4.96644,9.57384 C4.79456571,10.1240686 4.83028,11.4555257 5.08139429,12.0169257 C5.39725143,12.7234114 7.35593714,13.2736114 7.65059429,13.76024 C7.88050571,14.1385829 7.48988,14.6553257 7.80014857,15.0671543 C8.11040571,15.4800971 8.29457714,15.4856686 8.44189143,15.6754114 C8.72537429,16.0381257 8.35037429,16.6162686 8.78563429,16.9365829 C9.59700571,17.5336686 11.32692,17.1162714 11.6070629,16.3171543 C11.7253657,15.9778686 11.5177771,15.4388114 11.6182234,14.9522114 C11.6874206,14.6196114 12.0947949,14.1598114 12.2264806,13.9086971 C12.3525977,13.6676257 12.2376411,12.8874971 12.478712,12.5783543 C12.7197834,12.2680971 13.4764834,12.1765829 13.6371977,12.08504 C13.7711263,12.0091486 13.7789377,11.6106971 13.9128663,11.5348114 C14.070232,11.4466429 14.4831806,11.62856 14.634952,11.5348114 C14.7833891,11.4432943 14.8347291,11.1229829 14.9374091,10.9164971 C15.0400891,10.7100229 15.7208949,10.4656114 15.7186663,10.1017543 C15.714202,9.19549714 14.0769234,9.36515429 14.0490091,8.95444 C14.0188749,8.49684 14.4385234,8.22006857 14.9775806,8.16315429 C15.3827234,8.12074286 16.0780377,8.47229714 16.1818091,8.74798286 C16.3202034,9.11518286 16.0757834,9.21449714 16.3882834,9.57386857 C16.7398549,9.97789714 17.3815977,10.02364 17.5467691,10.3048971 C17.6661891,10.5080229 17.4251177,10.7290114 17.6617234,11.0537829 C17.749892,11.17432 18.0456663,11.3707543 18.3548091,11.4176114 C17.6818091,15.4233257 14.1985234,18.4767543 9.999952,18.4767543 L10,18.4766 Z" id="Shape"></path>
            </g>
        </g>
    </g>
</svg>