<?xml version="1.0" encoding="UTF-8"?>
<svg width="47px" height="47px" viewBox="0 0 47 47" version="1.1" xmlns="http://www.w3.org/2000/svg" xmlns:xlink="http://www.w3.org/1999/xlink">
    <!-- Generator: Sketch 48.2 (47327) - http://www.bohemiancoding.com/sketch -->
    <title>ecaoch icon</title>
    <desc>Created with Sketch.</desc>
    <defs></defs>
    <g id="responsive" stroke="none" stroke-width="1" fill="none" fill-rule="evenodd">
        <g id="ecaoch-icon" fill="#006062" fill-rule="nonzero">
            <path d="M23.7514288,19.1971992 L23.7514823,24.9600185 C24.1529836,25.2472521 24.3945196,25.6638138 24.3955654,26.1333583 C24.3955654,26.9420762 23.7263743,27.5939316 22.8961489,27.5939316 C22.0659236,27.5939316 21.3967324,26.9420762 21.3967324,26.1333583 C21.3967324,25.7676935 21.5567012,25.4550114 21.7710512,25.1942693 L21.7710512,19.1971992 L23.7514288,19.1971992 Z M24.995332,20.3967324 L24.9953873,20.3967882 C27.426314,21.2336555 29.1667232,23.5776092 29.1936983,26.3388249 L29.1936983,26.3943984 L27.1220269,26.3943984 L27.1220269,26.3388249 C27.1220269,24.7477728 26.2663991,23.4096778 24.995332,22.6839465 L24.995332,20.3967324 Z" id="Combined-Shape"></path>
            <path d="M30.12038,15.2131198 L27.9507318,17.4085386 C26.7072433,16.6585961 25.2775702,16.1502802 23.7438497,16.0164002 L23.7438497,13.9809949 L25.8070425,13.9820407 L25.8070425,12 L19.9058173,12 L19.9058173,13.9809965 L21.7850219,13.9809965 L21.7850219,16.0425352 C16.8626153,16.6052598 13,20.8622173 13,25.9769711 C13,31.4933651 17.4458313,35.9906641 22.8961489,35.9906641 C28.3477897,35.9906641 32.7922979,31.4920263 32.7922979,25.9769711 C32.7922979,23.0589213 31.5488094,20.4346044 29.5642343,18.5862563 L31.5219772,16.6052598 L30.12038,15.2131198 Z M30.8346344,25.9768089 C30.8346344,30.3948508 27.289295,34.0096124 22.8961225,34.0096124 C18.5299409,34.0096124 14.9576106,30.4221624 14.9576106,25.9768089 C14.9576106,21.7199585 18.2653239,18.2390769 22.3938793,17.9713168 L23.3727507,17.9713168 C27.526974,18.2390769 30.8346873,21.7199585 30.8346873,25.9768089 L30.8346344,25.9768089 Z" id="Shape"></path>
        </g>
    </g>
</svg>