<?xml version="1.0" encoding="UTF-8"?>
<svg width="47px" height="47px" viewBox="0 0 47 47" version="1.1" xmlns="http://www.w3.org/2000/svg" xmlns:xlink="http://www.w3.org/1999/xlink">
    <!-- Generator: Sketch 48.2 (47327) - http://www.bohemiancoding.com/sketch -->
    <title>events icon</title>
    <desc>Created with Sketch.</desc>
    <defs></defs>
    <g id="responsive" stroke="none" stroke-width="1" fill="none" fill-rule="evenodd">
        <g id="events-icon" fill="#006062" fill-rule="nonzero">
            <path d="M19.3001667,16.3299662 L26.3817944,16.3299662 C26.8261998,16.3299662 27.1852466,15.9699841 27.1852466,15.524421 C27.1852466,15.0788579 26.8261998,14.7188759 26.3817944,14.7188759 L19.3001667,14.7188759 C18.8557612,14.7188759 18.4967145,15.0788579 18.4967145,15.524421 C18.4967145,15.9687275 18.8570146,16.3299662 19.3001667,16.3299662 Z M32.0763422,14.7188759 L30.9615362,14.7188759 C30.5171307,14.7188759 30.158084,15.0788579 30.158084,15.524421 C30.158084,15.9699841 30.5171307,16.3299662 30.9615362,16.3299662 L32.0763422,16.3299662 C32.2533523,16.3299662 32.3977231,16.4747129 32.3977231,16.6521842 L32.3977231,20.2632819 L13.6069044,20.2632819 L13.6069044,16.6521842 C13.6069044,16.4747129 13.7512751,16.3299662 13.9282853,16.3299662 L14.7217104,16.3299662 C15.1661159,16.3299662 15.5251626,15.9699841 15.5251626,15.524421 C15.5251626,15.0788579 15.1661159,14.7188759 14.7217104,14.7188759 L13.9282853,14.7188759 C12.8649645,14.7188759 12,15.5860936 12,16.6521842 L12,33.286691 C12,34.3527817 12.8649645,35.2199993 13.9282853,35.2199993 L32.0763422,35.2199993 C33.1396629,35.2199993 34.0046274,34.3527817 34.0046274,33.286691 L34.0046274,16.6521842 C34.0046274,15.5860936 33.1396629,14.7188759 32.0763422,14.7188759 Z M32.3977231,33.286691 C32.3977231,33.4641623 32.2533523,33.6089091 32.0763422,33.6089091 L13.9282853,33.6089091 C13.7512751,33.6089091 13.6069044,33.4641623 13.6069044,33.286691 L13.6069044,21.8743721 L32.3977231,21.8743721 L32.3977231,33.286691 Z M17.0569281,18.6457473 C17.5013336,18.6457473 17.8603803,18.2857653 17.8603803,17.8402022 L17.8603803,12.8055451 C17.8603803,12.359982 17.5013336,12 17.0569281,12 C16.6125227,12 16.2534759,12.359982 16.2534759,12.8055451 L16.2534759,17.8402022 C16.2534759,18.2857653 16.6125227,18.6457473 17.0569281,18.6457473 Z M28.7471576,18.6457473 C29.1915631,18.6457473 29.5506098,18.2857653 29.5506098,17.8402022 L29.5506098,12.8055451 C29.5506098,12.359982 29.1915631,12 28.7471576,12 C28.3027522,12 27.9437054,12.359982 27.9437054,12.8055451 L27.9437054,17.8402022 C27.9437054,18.2857653 28.3027522,18.6457473 28.7471576,18.6457473 Z" id="events_icon"></path>
        </g>
    </g>
</svg>