<?xml version="1.0" encoding="UTF-8"?>
<svg width="47px" height="47px" viewBox="0 0 47 47" version="1.1" xmlns="http://www.w3.org/2000/svg" xmlns:xlink="http://www.w3.org/1999/xlink">
    <!-- Generator: Sketch 48.2 (47327) - http://www.bohemiancoding.com/sketch -->
    <title>forum icon</title>
    <desc>Created with Sketch.</desc>
    <defs></defs>
    <g id="responsive" stroke="none" stroke-width="1" fill="none" fill-rule="evenodd">
        <g id="forum-icon" fill="#00495A" fill-rule="nonzero">
            <path d="M27.1113296,14.0001375 C25.2519209,14.0001375 23.553937,14.6563888 22.298805,15.765766 C21.1555637,16.7765181 20.374284,18.1944709 20.2432152,19.7812741 C16.8160469,20.0732746 14,22.6562798 14,26.0000365 C14,27.7890901 14.8255249,29.3770433 16.1111463,30.5000455 L15.3680672,33.0078005 C15.2812614,33.2949011 15.3680672,33.6367018 15.5764041,33.8291022 C15.692726,33.9365249 15.8481197,34 16.0000111,34 C16.1189375,34 16.2300594,33.9658199 16.33335,33.8984373 L19.236065,32.0312336 C19.7586515,32.1533038 20.306394,32.249984 20.8888704,32.249984 C22.7482791,32.249984 24.446263,31.5859327 25.701395,30.4765305 C26.8481252,29.4628534 27.6293827,28.0517256 27.7569848,26.4610224 C28.1033462,26.4219598 28.4392851,26.3565297 28.763935,26.2813346 L31.66665,28.1485383 C31.8992983,28.2999061 32.2152814,28.271586 32.4235959,28.0792032 C32.6319328,27.8868203 32.7187342,27.5450271 32.6319328,27.2579015 L31.8888537,24.7501465 C33.1744751,23.6270943 34,22.0391411 34,20.2501375 C34,18.4737589 33.1788085,16.8751308 31.9235654,15.7656285 C30.6683222,14.6561263 28.9704051,14 27.1110407,14 L27.1113296,14.0001375 Z M27.1113296,15.5001405 C28.6877559,15.5001405 30.100935,16.0645916 31.0976183,16.9454434 C32.0943016,17.8262952 32.6670889,18.9893975 32.6670889,20.2502 C32.6670889,21.6857529 31.9804552,22.9719554 30.7503903,23.8674572 C30.5038528,24.0461676 30.3866731,24.4221583 30.4795413,24.734659 L30.8128802,25.8674612 L29.222587,24.8440092 C29.0767513,24.750259 28.8996706,24.7219389 28.7364678,24.765884 C28.2078146,24.9055318 27.6661389,25.0002595 27.1114407,25.0002595 C25.5350145,25.0002595 24.1218354,24.4279834 23.1251521,23.5471316 C22.1284688,22.6662798 21.5556815,21.5110025 21.5556815,20.250125 C21.5556815,18.9892475 22.1286021,17.8262952 23.1251521,16.9453684 C24.121702,16.0644416 25.53497,15.5000655 27.1114407,15.5000655 L27.1113296,15.5001405 Z M24.6668444,19.5001485 C24.2987939,19.5001485 24.0001667,19.8360992 24.0001667,20.25015 C24.0001667,20.6642008 24.2987939,21.0001515 24.6668444,21.0001515 C25.034895,21.0001515 25.3335222,20.6642008 25.3335222,20.25015 C25.3335222,19.8360992 25.034895,19.5001485 24.6668444,19.5001485 Z M27.1113296,19.5001485 C26.7432791,19.5001485 26.4446519,19.8360992 26.4446519,20.25015 C26.4446519,20.6642008 26.7432791,21.0001515 27.1113296,21.0001515 C27.4793802,21.0001515 27.7780074,20.6642008 27.7780074,20.25015 C27.7780074,19.8360992 27.4793802,19.5001485 27.1113296,19.5001485 Z M29.5558148,19.5001485 C29.1877642,19.5001485 28.889137,19.8360992 28.889137,20.25015 C28.889137,20.6642008 29.1877642,21.0001515 29.5558148,21.0001515 C29.9238654,21.0001515 30.2224926,20.6642008 30.2224926,20.25015 C30.2224926,19.8360992 29.9238654,19.5001485 29.5558148,19.5001485 Z M20.3125497,21.2814021 C20.5599538,22.6407798 21.2899882,23.8351572 22.2986939,24.726659 C22.540009,24.9405269 22.7969688,25.1417098 23.0695512,25.3204101 C22.8351695,25.4366204 22.6667667,25.6934609 22.6667667,26.0001115 C22.6667667,26.4141623 22.9653939,26.750113 23.3334444,26.750113 C23.701495,26.750113 24.0001222,26.4141623 24.0001222,26.0001115 C24.0001222,25.9395639 23.9914416,25.8848763 23.9792885,25.8282362 C24.7249676,26.1729618 25.5504925,26.3907373 26.4168847,26.4688624 C26.2936182,27.5469896 25.7467402,28.5264916 24.8751924,29.2968681 C23.8786424,30.1777199 22.4653744,30.749996 20.8889037,30.749996 C20.3342056,30.749996 19.7925299,30.6552683 19.2638766,30.5156205 C19.1006783,30.4716754 18.9236043,30.4999955 18.7777574,30.5937457 L17.1874642,31.6171977 L17.5208031,30.4843955 C17.6136869,30.1718948 17.4964961,29.7959191 17.2499542,29.6171937 C16.0198892,28.7216919 15.3332556,27.4355394 15.3332556,25.9999365 C15.3332556,23.6337318 17.4435352,21.5341776 20.3124497,21.2811771 L20.3125497,21.2814021 Z M18.4444741,25.25016 C18.0764235,25.25016 17.7777963,25.5861107 17.7777963,26.0001615 C17.7777963,26.4142123 18.0764235,26.750163 18.4444741,26.750163 C18.8125247,26.750163 19.1111519,26.4142123 19.1111519,26.0001615 C19.1111519,25.5861107 18.8125247,25.25016 18.4444741,25.25016 Z M20.8889593,25.25016 C20.5209087,25.25016 20.2222815,25.5861107 20.2222815,26.0001615 C20.2222815,26.4142123 20.5209087,26.750163 20.8889593,26.750163 C21.2570098,26.750163 21.555637,26.4142123 21.555637,26.0001615 C21.555637,25.5861107 21.2570098,25.25016 20.8889593,25.25016 Z" id="forum_icon"></path>
        </g>
    </g>
</svg>