<?xml version="1.0" encoding="UTF-8"?>
<svg width="47px" height="47px" viewBox="0 0 47 47" version="1.1" xmlns="http://www.w3.org/2000/svg" xmlns:xlink="http://www.w3.org/1999/xlink">
    <!-- Generator: Sketch 48.2 (47327) - http://www.bohemiancoding.com/sketch -->
    <title>health blog icon</title>
    <desc>Created with Sketch.</desc>
    <defs></defs>
    <g id="responsive" stroke="none" stroke-width="1" fill="none" fill-rule="evenodd">
        <g id="health-blog-icon" fill="#ffffff" fill-rule="nonzero">
            <path d="M33.0337806,14.9648807 C30.5682961,12.5182766 26.6613204,12.3448645 23.9989812,14.5098959 C22.7986479,13.5356707 21.3143812,13.0164304 19.7432541,13.0164304 C17.9538409,13.0164304 16.2736362,13.7090395 14.9641817,14.9648807 C13.6982011,16.2207218 13,17.9096386 13,19.7056767 C13,21.4807583 13.6982011,23.1475059 14.9641817,24.4464728 L23.3665146,32.7815101 C23.5412788,32.9548746 23.7373522,33.0200005 23.9990685,33.0200005 C24.2394843,33.0200005 24.4577267,32.9337404 24.6316223,32.7815101 L33.0339552,24.4464728 C34.2999358,23.1906316 34.9981369,21.5017149 34.9981369,19.7056767 C34.9981369,17.9085994 34.2999358,16.2417651 33.0339552,14.9648807 L33.0337806,14.9648807 Z M16.7312905,23.4293817 L18.1063923,23.9926138 C18.5207037,24.1659782 19.0015354,23.9926138 19.2197778,23.6027505 L21.0970118,20.0957565 L22.6025353,22.8450198 C22.7338212,23.1266359 23.0390201,23.3000046 23.3663837,23.3000046 L24.4575958,23.3000046 L25.853998,26.2657625 C25.9852839,26.5905042 26.3126563,26.7850028 26.6613204,26.7850028 L26.7482769,26.7850028 C27.0978139,26.7418728 27.4030041,26.5033868 27.5121253,26.2006409 L29.3671858,20.3773725 L30.5453457,21.8497081 C30.7201098,22.0662026 30.9596571,22.1744499 31.2435468,22.1744499 L32.6399491,22.1744499 C32.3995332,22.5643131 32.1165165,22.9101847 31.8326267,23.1918007 L23.9988153,30.9425195 L16.4260218,23.4295116 L16.7312905,23.4293817 Z M28.8003143,17.6922781 C28.4729506,17.7573953 28.2112343,17.995024 28.145587,18.2986358 L26.4865955,23.5165857 L25.8318683,22.0873758 C25.7005823,21.7626341 25.37321,21.5681354 25.0245459,21.5681354 L23.88986,21.5681354 L21.8600309,17.8446469 C21.728745,17.5630309 21.4235461,17.3896621 21.0961825,17.3896621 C20.7688188,17.3896621 20.4636287,17.5630266 20.332334,17.8446469 L18.0407887,22.0875057 L17.2112929,21.762764 C17.1243364,21.7407768 17.0365288,21.6976467 16.9061027,21.6976467 L15.1823368,21.6976467 C14.3315406,19.814318 14.745852,17.6273341 16.2079016,16.19912 C17.167819,15.2468907 18.4125865,14.7267844 19.7432104,14.7267844 C21.0748384,14.7267844 22.3398587,15.2460247 23.2785193,16.19912 L23.3876405,16.3073673 C23.5624047,16.4807317 23.8019519,16.5669874 24.0423678,16.5669874 C24.2827836,16.5669874 24.4788526,16.4587402 24.6314477,16.3073673 L24.7405689,16.19912 C26.6825772,14.2726656 29.8692656,14.2726656 31.8111866,16.19912 C32.7498036,17.1302195 33.2732362,18.3861472 33.2732362,19.7061141 C33.2732362,19.9877301 33.2510715,20.2253544 33.2297579,20.4418489 L31.6151133,20.4418489 L29.673105,17.9952448 C29.4113887,17.7575988 29.1053255,17.6282217 28.8001353,17.6924989 L28.8003143,17.6922781 Z" id="healthblog_icon"></path>
        </g>
    </g>
</svg>