<?xml version="1.0" encoding="UTF-8"?>
<svg width="42px" height="42px" viewBox="0 0 42 42" version="1.1" xmlns="http://www.w3.org/2000/svg" xmlns:xlink="http://www.w3.org/1999/xlink">
    <!-- Generator: Sketch 48.2 (47327) - http://www.bohemiancoding.com/sketch -->
    <title>lifeplus_favicon</title>
    <desc>Created with Sketch.</desc>
    <defs>
        <path d="M3.30784903,0.0156169593 C1.65584747,0.0156169593 0.040535026,1.28707288 0.040535026,3.22010714 L0.0435098187,3.22297941 L0.0415266236,3.22297941 L0.040535026,9.6108965 C0.040535026,13.5190916 6.21223831,14.9647982 7.95546685,15.2922364 C8.0576014,15.3104274 8.39771936,15.3640431 8.39771936,15.3640431 C7.09178536,14.9944783 7.04319708,14.2438598 7.04617187,12.609541 L7.04418868,3.21723488 C7.03030631,1.26313734 5.39813671,0.0156169593 3.77489148,0.0156169593 L3.30784903,0.0156169593 Z" id="path-1"></path>
        <path d="M1.43655913,2.75519785 L1.43952298,12.147504 C1.45434221,14.102559 3.07951809,15.3500793 4.69580244,15.3500793 L5.16112635,15.3500793 C6.81001301,15.3500793 8.41641787,14.0767086 8.41641787,12.1455892 L8.41345402,12.1408021 L8.41641787,12.1417595 L8.41641787,5.75384238 C8.41641787,1.84373246 2.26643618,0.399940649 0.530610021,0.0734598746 C0.429839237,0.0552688637 0.0880089293,0.000695831018 0.0880089293,0.000695831018 C1.39210143,0.370260579 1.43952298,1.12183656 1.43655913,2.75519785 Z" id="path-3"></path>
    </defs>
    <g id="responsive" stroke="none" stroke-width="1" fill="none" fill-rule="evenodd">
        <g id="lifeplus_favicon">
            <g id="ZP-plus-logo" transform="translate(5.000000, 5.000000)">
                <path d="M11.6299507,16.5788909 C11.6130712,16.5760364 15.9103841,17.1907187 18.3767717,19.2193606 C18.1553528,19.0395232 17.9567709,18.8463645 17.6996073,18.6627211 C17.6996073,18.6627211 15.559887,17.1241122 14.1549199,15.6502068 C12.7529315,14.1782044 11.7401636,12.5682316 11.4661206,12.1476594 C11.1920775,11.7261358 10.0075363,9.70225147 6.74284939,9.70225147 L3.32426149,9.70034843 C1.31957692,9.72794253 0,11.2827272 0,12.8698636 L0,13.3132722 C0,14.871863 1.29376127,16.4380659 3.32028985,16.4513872 L10.0710825,16.4523387 C10.0710825,16.4523387 10.7601618,16.4399689 11.6299507,16.5788909" id="Combined-Shape" fill="#006062" fill-rule="nonzero"></path>
                <path d="M20.3700493,15.3096108 C20.3869288,15.3124654 16.08763,14.6977831 13.6252141,12.6691411 C13.8446472,12.8489785 14.0422362,13.0421372 14.3003927,13.2257807 C14.3003927,13.2257807 16.4391201,14.765341 17.8450801,16.2382949 C19.2470685,17.7102973 20.2578506,19.3202702 20.5348723,19.7408423 C20.8069296,20.1623659 21.9924637,22.1862503 25.2571506,22.1862503 L28.6747456,22.1881533 C30.6794302,22.1605592 32,20.6057745 32,19.0195897 L32,18.5752296 C32,17.0156873 30.7062387,15.4504359 28.6787172,15.4371146 L21.9299104,15.4361631 C21.9299104,15.4361631 21.2388453,15.4485328 20.3700493,15.3096108" id="Combined-Shape-Copy" fill="#C2D62F" fill-rule="nonzero"></path>
                <g id="Group" transform="translate(11.898917, 0.000000)">
                    <mask id="mask-2" fill="white">
                        <use xlink:href="#path-1"></use>
                    </mask>
                    <g id="Shape"></g>
                    <polygon id="Shape" fill="#C2D62F" fill-rule="nonzero" mask="url(#mask-2)" points="0.787207998 16.921768 -2.7270138 0.912721023 6.53649072 -0.983931219 10.0517041 15.0251158"></polygon>
                </g>
                <g id="Group" transform="translate(11.552347, 16.613240)">
                    <mask id="mask-4" fill="white">
                        <use xlink:href="#path-3"></use>
                    </mask>
                    <g id="Shape"></g>
                    <polygon id="Shape" fill="#006062" fill-rule="nonzero" mask="url(#mask-4)" points="2.21308694 16.6406837 -2.5389471 0.737910483 7.26348154 -2.01276185 12.0155156 13.8890539"></polygon>
                </g>
            </g>
        </g>
    </g>
</svg>