<?xml version="1.0" encoding="UTF-8"?>
<svg width="47px" height="47px" viewBox="0 0 47 47" version="1.1" xmlns="http://www.w3.org/2000/svg" xmlns:xlink="http://www.w3.org/1999/xlink">
    <!-- Generator: Sketch 48.2 (47327) - http://www.bohemiancoding.com/sketch -->
    <title>login icon</title>
    <desc>Created with Sketch.</desc>
    <defs></defs>
    <g id="responsive" stroke="none" stroke-width="1" fill="none" fill-rule="evenodd">
        <g id="login-icon" fill="#006062" fill-rule="nonzero">
            <path d="M24.002803,12.0000843 C27.7338309,12.001022 31.2519384,13.7367048 33.5220491,16.6969101 C35.7921598,19.6572114 36.5564649,23.5054591 35.5905696,27.1081352 C34.6238342,30.7117715 32.0366953,33.6607905 28.5898813,35.08789 C25.1430673,36.5141253 21.2281646,36.2571994 17.9978717,34.3911918 C14.7675788,32.5251841 12.5884453,29.2629955 12.1025931,25.5638191 C11.6159488,21.8656029 12.8780603,18.1503431 15.5167609,15.5136297 C17.7653155,13.2594126 20.819367,11.9954513 24.002851,12.0000123 L24.002803,12.0000843 Z M24.002803,24.8230956 C25.9447235,24.8230956 27.8183269,25.5451191 29.2586002,26.8475845 C30.6979373,28.1509861 31.602789,29.942074 31.7968418,31.8744796 L31.8371622,31.8341583 C33.9141083,29.7571704 35.0796975,26.939291 35.0796975,24.0025146 C35.0787598,21.064778 33.9113478,18.2477868 31.8342817,16.1708709 C29.7573356,14.0948192 26.9404732,12.9273101 24.0027958,12.9273101 C21.0660786,12.9273101 18.2491441,14.0947471 16.1713099,16.1708709 C14.0943638,18.2478588 12.9268543,21.064778 12.9268543,24.0025146 C12.9259167,26.939291 14.0923955,29.7572424 16.1684294,31.8341583 L16.2087498,31.8744796 C16.4028482,29.9418819 17.3077023,28.150818 18.7479516,26.8475845 C20.1882248,25.5451191 22.0608201,24.8230956 24.0027886,24.8230956 L24.002803,24.8230956 Z M24.002803,15.0362415 C22.8494562,15.0362415 21.7420541,15.4947858 20.9263793,16.310573 C20.1106085,17.1272964 19.6520735,18.2337846 19.6520735,19.3880189 C19.6520735,20.541389 20.1106085,21.6488134 20.9263793,22.4645046 C21.7421501,23.2801958 22.8495522,23.738836 24.002803,23.738836 C25.157086,23.738836 26.2635519,23.2802918 27.0801869,22.4645046 C27.8959577,21.6487174 28.3544927,20.5412929 28.3544927,19.3880189 C28.3610562,18.2290316 27.9053434,17.11599 27.0886365,16.2944896 C26.2719295,15.4729892 25.1617189,15.0107722 24.002851,15.0107722 L24.002803,15.0362415 Z" id="Shape"></path>
        </g>
    </g>
</svg>