<?xml version="1.0" encoding="UTF-8"?>
<svg width="47px" height="47px" viewBox="0 0 47 47" version="1.1" xmlns="http://www.w3.org/2000/svg" xmlns:xlink="http://www.w3.org/1999/xlink">
    <!-- Generator: Sketch 48.2 (47327) - http://www.bohemiancoding.com/sketch -->
    <title>rewards icon</title>
    <desc>Created with Sketch.</desc>
    <defs></defs>
    <g id="responsive" stroke="none" stroke-width="1" fill="none" fill-rule="evenodd">
        <g id="rewards-icon" fill="#ffffff" fill-rule="nonzero">
            <path d="M23.9890205,11.0000586 C23.9603591,11.0011497 23.9327603,11.0044233 23.904099,11.0087879 C23.4869105,11.05789 23.1748344,11.4245269 23.1822803,11.8555178 L23.1822803,13.5315468 C23.1790957,13.7563274 23.2640169,13.9723704 23.4168755,14.1316769 C23.5697341,14.2920785 23.7788446,14.3815533 23.9975208,14.3815533 C24.2161969,14.3815533 24.4253075,14.2920785 24.5781661,14.1316769 C24.7310247,13.9723676 24.8159461,13.7563023 24.8127612,13.5315468 L24.8127612,11.8555178 C24.8170073,11.6285555 24.7320845,11.4092192 24.5771035,11.2488232 C24.4221226,11.0873323 24.2098081,10.9978547 23.9890123,11.0000391 L23.9890205,11.0000586 Z M16.567022,13.5228175 C16.265544,13.5544609 16.0054806,13.7563274 15.8940093,14.0465765 C15.7814891,14.3357474 15.8345643,14.6652547 16.032006,14.9020497 L18.4777436,17.9747695 C18.6114956,18.1580852 18.8121303,18.2781028 19.0329261,18.3053942 C19.2547844,18.3326732 19.4776971,18.2650214 19.6496596,18.1198969 C19.8216248,17.9736801 19.9277671,17.7620088 19.9436916,17.5339292 C19.9596144,17.3047853 19.8842466,17.0800047 19.7345729,16.909776 L17.2888352,13.8370562 C17.1158074,13.6122755 16.8440643,13.49442 16.5670165,13.5228007 L16.567022,13.5228175 Z M31.3178092,13.5228175 C31.0789666,13.5304557 30.8560539,13.6450279 30.7063748,13.8370729 L28.2606371,16.9097927 C28.1109634,17.0800158 28.0355967,17.3048048 28.0515184,17.5339459 C28.067441,17.7620004 28.1735933,17.9736801 28.3455504,18.1199136 C28.5175157,18.2650382 28.7404284,18.3326911 28.9622839,18.3054109 C29.1830797,18.2781319 29.3837117,18.1581047 29.5174664,17.9747863 L31.963204,14.9020664 C32.1712602,14.6500084 32.2147835,14.2953719 32.0757243,13.9974856 C31.936665,13.6995994 31.6394318,13.5130015 31.3177902,13.5228342 L31.3178092,13.5228175 Z M23.9295075,16.883535 C23.6694359,16.9064493 23.4359033,17.0559397 23.3010888,17.2850836 L21.313927,20.6022243 L17.5858076,21.3704042 C17.2907157,21.4315095 17.0529357,21.6541001 16.9658946,21.9498075 C16.8788508,22.2455149 16.9574025,22.5663068 17.1697061,22.7845537 L19.8787138,25.56922 L19.3861694,29.3402853 C19.3468936,29.6392609 19.4679059,29.9371471 19.7014522,30.1193873 C19.9349875,30.3016108 20.2460092,30.3408941 20.5156382,30.2219575 L23.9972816,28.6855976 L27.478925,30.2219575 C27.7485513,30.3408941 28.0595703,30.3016136 28.2931111,30.1193873 C28.5266464,29.9371639 28.6476615,29.6392609 28.6083938,29.3402853 L28.1158495,25.56922 L30.8248572,22.7845537 C31.0371608,22.5663208 31.1157097,22.2455149 31.0286686,21.9498075 C30.9416248,21.6541001 30.7038475,21.4314955 30.4087557,21.3704042 L26.6806363,20.6022243 L24.6934744,17.2850836 C24.5331862,17.0133825 24.2370183,16.857361 23.9291814,16.883535 L23.9295075,16.883535 Z M23.9974447,19.3190286 L25.4750778,21.7894394 C25.5939679,21.9880321 25.787154,22.12769 26.0100965,22.1735294 L28.5917085,22.7060038 L26.6809895,24.6700863 C26.501592,24.8555836 26.4166705,25.1174743 26.4517016,25.3771471 L26.8083717,28.1006942 L24.3201869,27.0095435 C24.1142531,26.917887 23.880715,26.917887 23.6747839,27.0095435 L21.1865992,28.1006942 L21.5432692,25.3771471 C21.5783004,25.1174492 21.4933789,24.8555669 21.3139813,24.6700863 L19.4032624,22.7060038 L21.9848743,22.1735294 C22.2077925,22.1277012 22.4009758,21.9880321 22.519893,21.7894394 L23.9974447,19.3190286 Z M12.8302066,20.2268776 C12.8015453,20.2279687 12.7739465,20.2312423 12.7452852,20.2356069 C12.3291837,20.2727058 12.006455,20.6273228 12.0000961,21.0572522 C11.9937271,21.4871816 12.3047535,21.8527235 12.7197951,21.9028926 L14.3502869,22.1822308 C14.7961177,22.2597024 15.2175455,21.9509053 15.2929285,21.4926007 C15.3683116,21.0342962 15.0678881,20.6011209 14.6220355,20.5236325 L12.9915438,20.2442943 C12.9384685,20.2333828 12.8843308,20.2268357 12.830193,20.2268357 L12.8302066,20.2268776 Z M35.1815312,20.2268776 C35.1422553,20.2268776 35.101917,20.2301512 35.0626411,20.2356069 C35.0424722,20.2377891 35.0233653,20.2410627 35.0031961,20.2443362 L33.3727044,20.5236744 C33.1582784,20.5607733 32.9682609,20.684076 32.8419521,20.8652212 C32.7166923,21.0474446 32.6657394,21.2722169 32.7018331,21.4926426 C32.7771999,21.9509248 33.1986168,22.2597332 33.6444747,22.1822727 L35.2749665,21.9029345 C35.7059326,21.8516508 36.023335,21.4642898 35.9978722,21.0190806 C35.9734572,20.5749888 35.6146523,20.2269055 35.1815665,20.2269055 L35.1815312,20.2268776 Z M17.1442161,25.8136409 C17.046555,25.8256438 16.9510191,25.8551059 16.8639889,25.9009341 L13.3312567,27.5769631 C13.1189531,27.6588008 12.9491238,27.8268395 12.8631154,28.0428992 C12.7771314,28.2578583 12.7813788,28.5000919 12.8758536,28.7117744 C12.9713895,28.9234597 13.1465397,29.0849423 13.362039,29.158073 C13.5775276,29.2311814 13.8121091,29.2082673 14.0106215,29.0958755 L17.5433536,27.4198465 C17.8947246,27.2616266 18.09215,26.8731818 18.0167941,26.4869129 C17.9414273,26.0995547 17.6134104,25.8191271 17.2291579,25.8136521 C17.2004965,25.812561 17.1728978,25.812561 17.1442364,25.8136521 L17.1442161,25.8136409 Z M30.7400716,25.8223702 C30.3674771,25.8474671 30.0596402,26.1289997 29.9906432,26.5054359 C29.9227061,26.8829893 30.1127182,27.2594254 30.4513387,27.4198214 L33.9840708,29.0958504 C34.1825751,29.2082393 34.4171838,29.2311562 34.6326533,29.1580478 C34.8481418,29.0849395 35.0232919,28.9234485 35.1188388,28.7117493 C35.2133149,28.500064 35.2175596,28.2578247 35.131577,28.042874 C35.045593,27.8268227 34.8757501,27.658784 34.6634356,27.576938 L31.1307035,25.900909 C31.0086285,25.8419854 30.8748766,25.814708 30.7400648,25.8223451 L30.7400716,25.8223702 Z M23.9887487,30.5538001 C23.9600874,30.5548912 23.9324886,30.5581648 23.9038273,30.5625294 C23.4866388,30.6116315 23.1745627,30.9782684 23.1820086,31.4092593 L23.1820086,35.3199936 C23.1788239,35.5447742 23.2637451,35.7608172 23.4166037,35.9201237 C23.5694623,36.0805253 23.7785729,36.1700001 23.997249,36.1700001 C24.2159251,36.1700001 24.4250357,36.0805253 24.5778943,35.9201237 C24.7307529,35.7608144 24.8156744,35.5447491 24.8124895,35.3199936 L24.8124895,31.4092593 C24.8167355,31.182297 24.7318127,30.9629607 24.5768318,30.8025647 C24.4218508,30.6410737 24.2095363,30.5515961 23.9887406,30.5537805 L23.9887487,30.5538001 Z M18.5113834,31.1211918 C18.2417571,31.141924 18.0007949,31.299052 17.8659804,31.540199 L17.0507345,32.9368899 C16.9127379,33.1267532 16.8607224,33.3679087 16.9053055,33.600318 C16.9509511,33.8327357 17.0889478,34.0346051 17.2863786,34.1557261 C17.4848828,34.2779365 17.7237309,34.3073983 17.9434668,34.238656 C18.1642626,34.1688215 18.3457906,34.0073305 18.4434299,33.7923574 L19.2586758,32.3956666 C19.4179042,32.1283316 19.418964,31.7933576 19.2618604,31.5249136 C19.1047571,31.2564864 18.8149698,31.1015487 18.5113723,31.1211862 L18.5113834,31.1211918 Z M29.3813285,31.1211918 C29.095775,31.1386504 28.8399509,31.3099629 28.7083158,31.5707586 C28.5756264,31.8315459 28.5862409,32.1447148 28.7359146,32.3956722 L29.5511605,33.792363 C29.6488215,34.0073221 29.8303279,34.168827 30.0511236,34.2386616 C30.2708568,34.3074039 30.5096994,34.2779421 30.7082118,34.1557317 C30.9056535,34.0346134 31.0436583,33.8327609 31.0892849,33.6003236 C31.133868,33.3679059 31.0818542,33.1267616 30.9438559,32.9368954 L30.12861,31.5402046 C29.9757514,31.2674141 29.6870185,31.1059176 29.3813013,31.1211974 L29.3813285,31.1211918 Z" id="reward_icon"></path>
        </g>
    </g>
</svg>