<?xml version="1.0" encoding="UTF-8"?>
<svg width="30px" height="32px" viewBox="0 0 30 32" version="1.1" xmlns="http://www.w3.org/2000/svg" xmlns:xlink="http://www.w3.org/1999/xlink">
    <!-- Generator: sketchtool 48.2 (47327) - http://www.bohemiancoding.com/sketch -->
    <title>A1C31334-E0EC-4D78-B4F2-7A5389993811</title>
    <desc>Created with sketchtool.</desc>
    <defs></defs>
    <g id="Lifeplus-Landing-page-1024" stroke="none" stroke-width="1" fill="none" fill-rule="evenodd" transform="translate(-237.000000, -3289.000000)">
        <g id="REWARDS-SECTION" transform="translate(0.000000, 3245.000000)" fill="#FFFFFF" fill-rule="nonzero">
            <g id="rewards-header-*">
                <path d="M251.986176,44.0000725 C251.95035,44.0014211 251.915852,44.0054672 251.880025,44.0108619 C251.358543,44.0715518 250.96845,44.5247133 250.977758,45.0574159 L250.977758,47.1289798 C250.973777,47.4068076 251.079928,47.6738356 251.271,47.8707378 C251.462072,48.0689934 251.723458,48.1795838 251.996802,48.1795838 C252.270145,48.1795838 252.531531,48.0689934 252.722603,47.8707378 C252.913675,47.6738322 253.019826,47.4067765 253.015845,47.1289798 L253.015845,45.0574159 C253.021153,44.7768917 252.915,44.505793 252.721275,44.3075443 C252.52755,44.1079423 252.262159,43.9973484 251.986166,44.0000483 L251.986176,44.0000725 Z M242.70874,47.1181904 C242.331895,47.1573016 242.006818,47.4068076 241.867479,47.7655541 C241.72683,48.122968 241.793174,48.5302374 242.039974,48.8229149 L245.097126,52.620782 C245.264315,52.8473593 245.515106,52.9957005 245.791099,53.0294325 C246.06842,53.0631493 246.347059,52.979532 246.562011,52.8001587 C246.776966,52.6194355 246.909643,52.3578108 246.929549,52.0759054 C246.949452,51.7926847 246.855243,51.5148569 246.668152,51.3044551 L243.611,47.5065879 C243.394717,47.2287601 243.05504,47.0830912 242.708733,47.1181697 L242.70874,47.1181904 Z M261.147101,47.1181904 C260.84855,47.1276312 260.569911,47.269242 260.382813,47.5066087 L257.325662,51.3044758 C257.138571,51.5148707 257.044363,51.7927089 257.064265,52.0759262 C257.084168,52.3578004 257.216858,52.6194355 257.431803,52.8001794 C257.646758,52.9795527 257.925397,53.0631714 258.202714,53.0294532 C258.478707,52.9957364 258.729496,52.8473835 258.896688,52.6208027 L261.95384,48.8229356 C262.213908,48.5113931 262.268312,48.073064 262.094489,47.704878 C261.920666,47.3366921 261.549127,47.106058 261.147078,47.1182111 L261.147101,47.1181904 Z M251.911786,51.2720213 C251.586698,51.3003433 251.294784,51.4851127 251.126267,51.7683335 L248.642332,55.8683036 L243.982213,56.8177704 C243.613351,56.8932962 243.316128,57.1684171 243.207327,57.5339101 C243.098523,57.899403 243.196712,58.2959003 243.46209,58.5656524 L246.848327,62.0074868 L246.232651,66.6685055 C246.183556,67.038038 246.334821,67.406224 246.626751,67.631472 C246.918669,67.8566993 247.307443,67.9052533 247.644477,67.7582483 L251.996503,65.8593147 L256.348528,67.7582483 C256.685559,67.9052533 257.07433,67.8567028 257.366254,67.631472 C257.658171,67.4062447 257.809439,67.038038 257.760355,66.6685055 L257.144678,62.0074868 L260.530916,58.5656524 C260.796293,58.2959176 260.894479,57.899403 260.785678,57.5339101 C260.676874,57.1684171 260.379654,56.8932789 260.010792,56.8177704 L255.350674,55.8683036 L252.866738,51.7683335 C252.666379,51.4325122 252.296171,51.2396704 251.911378,51.2720213 L251.911786,51.2720213 Z M251.996706,54.2822798 L253.843736,57.3356959 C253.992347,57.5811555 254.233828,57.753772 254.512505,57.8104293 L257.739498,58.4685652 L255.351115,60.8961618 C255.12687,61.1254356 255.020719,61.4491313 255.064507,61.7700856 L255.510342,65.1363769 L252.400132,63.7877197 C252.142716,63.6744328 251.850795,63.6744328 251.593383,63.7877197 L248.483173,65.1363769 L248.929007,61.7700856 C248.972796,61.4491002 248.866645,61.1254149 248.642399,60.8961618 L246.254017,58.4685652 L249.48101,57.8104293 C249.759656,57.7537858 250.001134,57.5811555 250.149779,57.3356959 L251.996706,54.2822798 Z M238.037751,55.4043769 C238.001925,55.4057255 237.967427,55.4097716 237.9316,55.4151663 C237.411477,55.4610204 237.008069,55.8993253 237.00012,56.430716 C236.992159,56.9621066 237.380939,57.4139147 237.899738,57.4759235 L239.937839,57.8211842 C240.495124,57.9169388 241.021905,57.5352669 241.116133,56.9688047 C241.210362,56.4023425 240.834835,55.8669399 240.277523,55.7711646 L238.239421,55.4259039 C238.173078,55.4124173 238.105406,55.4043251 238.037734,55.4043251 L238.037751,55.4043769 Z M265.976722,55.4043769 C265.927627,55.4043769 265.877205,55.408423 265.82811,55.4151663 C265.802899,55.4178635 265.779016,55.4219096 265.753805,55.4259557 L263.715703,55.7712163 C263.447673,55.8170704 263.210152,55.9694719 263.052267,56.1933665 C262.895694,56.4185939 262.832003,56.6964113 262.87712,56.9688565 C262.971328,57.5352911 263.498095,57.9169767 264.055414,57.821236 L266.093515,57.4759753 C266.632219,57.4125889 267.02897,56.9338125 266.997141,56.3835361 C266.966623,55.8346407 266.51812,55.4044114 265.976766,55.4044114 L265.976722,55.4043769 Z M243.430227,62.3095899 C243.308152,62.3244254 243.188733,62.3608403 243.079946,62.4174838 L238.66406,64.4890477 C238.398682,64.5901987 238.186397,64.7978937 238.078887,65.0649425 C237.971408,65.3306309 237.976717,65.6300306 238.09481,65.8916691 C238.214229,66.153311 238.433165,66.3529028 238.702538,66.443292 C238.971896,66.5336536 239.265121,66.5053319 239.51326,66.3664163 L243.929146,64.2948524 C244.368357,64.0992933 244.615137,63.6191773 244.520943,63.1417509 C244.426735,62.6629779 244.016717,62.3163708 243.536404,62.3096037 C243.500578,62.3082551 243.466079,62.3082551 243.430253,62.3096037 L243.430227,62.3095899 Z M260.424934,62.3203793 C259.959194,62.3513988 259.574401,62.6993719 259.488155,63.1646451 C259.403234,63.6312994 259.640748,64.0965727 260.06402,64.2948213 L264.479906,66.3663852 C264.728035,66.5052974 265.021294,66.5336226 265.290629,66.4432609 C265.559988,66.3528993 265.778924,66.1532972 265.898357,65.891638 C266.016451,65.629996 266.021757,65.3305894 265.91428,65.0649114 C265.8068,64.797873 265.594498,64.590178 265.329107,64.4890166 L260.913221,62.4174527 C260.760628,62.3446235 260.593439,62.3109088 260.424926,62.3203482 L260.424934,62.3203793 Z M251.985837,68.1684041 C251.95001,68.1697527 251.915512,68.1737988 251.879685,68.1791935 C251.358203,68.2398834 250.968111,68.6930449 250.977418,69.2257476 L250.977418,74.0593966 C250.973437,74.3372244 251.079588,74.6042525 251.27066,74.8011546 C251.461732,74.9994102 251.723119,75.1100006 251.996462,75.1100006 C252.269805,75.1100006 252.531192,74.9994102 252.722264,74.8011546 C252.913336,74.604249 253.019487,74.3371933 253.015506,74.0593966 L253.015506,69.2257476 C253.020813,68.9452233 252.91466,68.6741246 252.720936,68.475876 C252.527211,68.2762739 252.261819,68.16568 251.985826,68.1683799 L251.985837,68.1684041 Z M245.139175,68.8696975 C244.802145,68.8953224 244.500944,69.0895319 244.332427,69.3875885 L243.313376,71.1138917 C243.140882,71.3485619 243.075863,71.6466289 243.131591,71.9338858 C243.188648,72.221153 243.361143,72.4706625 243.607929,72.6203675 C243.856058,72.771419 244.154616,72.8078337 244.429284,72.7228685 C244.705277,72.6365533 244.932186,72.4369512 245.054234,72.1712456 L246.073285,70.4449423 C246.272319,70.1145175 246.273644,69.7004913 246.077265,69.3686958 C245.880888,69.0369211 245.518656,68.8454188 245.139161,68.8696906 L245.139175,68.8696975 Z M258.726517,68.8696975 C258.369577,68.8912763 258.049799,69.1030178 257.885256,69.42536 C257.719396,69.7476919 257.732664,70.1347671 257.919755,70.4449492 L258.938805,72.1712525 C259.060881,72.4369409 259.287762,72.6365602 259.563755,72.7228754 C259.83842,72.8078406 260.136971,72.771426 260.38511,72.6203744 C260.63191,72.4706729 260.804415,72.2211841 260.861448,71.9338927 C260.917176,71.6466255 260.85216,71.3485723 260.679663,71.1138986 L259.660612,69.3875954 C259.46954,69.0504277 259.108627,68.8508187 258.726483,68.8697044 L258.726517,68.8696975 Z" id="reward_icon"></path>
            </g>
        </g>
    </g>
</svg>